<?xml version="1.0" encoding="utf-8"?>
<!-- Generator: Adobe Illustrator 20.1.0, SVG Export Plug-In . SVG Version: 6.00 Build 0)  -->
<svg version="1.1" id="Layer_1" xmlns="http://www.w3.org/2000/svg" xmlns:xlink="http://www.w3.org/1999/xlink" x="0px" y="0px"
	 viewBox="0 0 192.3 72.8" style="enable-background:new 0 0 192.3 72.8;" xml:space="preserve">
<g>
	<path d="M102.1,35.7v-0.9l-1.3-0.2c-0.9-0.2-1.2-0.5-0.9-1.2c0,0,0.6-1.7,1.6-4.7h5.8c0,0,1.3,3.4,1.8,4.7c0.3,0.7-0.1,1-1,1.2
		l-1.3,0.2v0.9l3.9-0.1l3.9,0.1v-0.9l-1.2-0.2c-0.7-0.1-1-0.5-1.2-1.2c-3.4-8.1-6-15.2-6-15.2l-2.1,0.5c0,0-3.1,8.1-5.7,14.8
		c-0.3,0.7-0.6,1-1.3,1.1l-1.2,0.2v0.9l2.7-0.1L102.1,35.7z M104.4,20.7l2.5,6.9h-5.1L104.4,20.7z"/>
	<path d="M116.8,28.4v5.2c0,0.7-0.3,0.9-1.2,1.2l-0.5,0.2v0.7l2.9-0.1l3.5,0.1V35l-1.1-0.2c-0.9-0.1-1.2-0.4-1.2-1.2V27
		c0.2-0.2,1.5-0.9,1.9-1.2c0.2,0,1.6,1.2,1.6,1.2h0.3c0.8-0.4,1.3-1,1.3-1.7c0-0.8-0.6-1.6-1.8-1.6c-1.4,0-2.9,1.5-3.5,2.5h-0.2
		l0.1-2.7h-0.7l-3.2,1.6v0.4l1,0.4C116.7,26.2,116.8,26.7,116.8,28.4z"/>
	<path d="M130.9,35.9c1.7,0,3.7-0.6,4.8-2.7l-0.5-0.7c-0.5,1-1.7,1.6-3.1,1.6c-1.9,0-4-1.3-4-4.7c0-3.3,1.4-4.9,3.2-4.9
		c1.1,0,1.2,0.2,1.2,1.2v1.5l0.8,0.4c0.9-0.1,1.9-0.7,1.9-1.8c0-0.8-0.9-2.3-3.9-2.3c-3.4,0-5.8,2.7-5.8,6.2
		C125.6,34.1,128.3,35.9,130.9,35.9z"/>
	<path d="M148.4,33.6c0,0,0-3.9,0-5.9c0-2.6-1.3-4-3.8-4c-2,0-3.3,1.3-3.7,2h-0.2c0,0,0.4-0.7,0.4-3v-5.2h-0.7l-3.4,0.8v0.4l1,0.4
		c0.6,0.2,0.7,0.8,0.7,2.4v12.1c0,0.7-0.3,0.9-1.2,1.2L137,35v0.7l2.9-0.1l3,0.1V35l-0.7-0.2c-0.8-0.2-1.1-0.4-1.1-1.2v-4.9
		c0-2.1,0.3-3.6,2.5-3.6c1,0,1.6,0.4,2,1.1c0.4,0.8,0.4,1.9,0.4,3v2.2c0,2.6-0.1,3.2-1.2,3.4l-0.7,0.2v0.7l3.1-0.1l3,0.1V35
		l-0.7-0.2C148.7,34.6,148.4,34.4,148.4,33.6z"/>
	<path d="M154.1,21.4c1,0,1.8-0.8,1.8-1.8s-0.8-1.8-1.8-1.8s-1.8,0.8-1.8,1.8S153.1,21.4,154.1,21.4z"/>
	<path d="M157.4,35.7V35l-0.7-0.2c-0.9-0.2-1.1-0.4-1.1-1.2v-6c0-2.3,0-4.1,0-4.1h-0.9l-3.3,1.6v0.4l1,0.4c0.6,0.2,0.8,0.8,0.8,2.4
		v5.2c0,0.7-0.3,0.9-1.2,1.2l-0.7,0.2v0.7l3.1-0.1L157.4,35.7z"/>
	<path d="M170.4,24.9l0.5-0.2V24l-2.3,0.1l-2.3-0.1v0.8l0.6,0.2c0.9,0.2,1.3,0.5,1.1,1.2c-0.7,1.8-2.7,7.1-2.8,7.3l-2.9-7.3
		c-0.3-0.7,0.1-1,0.9-1.2l0.8-0.2V24l-3.2,0.1l-3-0.1v0.8l0.5,0.2c0.7,0.2,0.8,0.5,1.2,1.2c2.5,5.5,4.2,9.6,4.2,9.6h1.5
		c0,0,1.7-3.9,4-9.6C169.4,25.4,169.5,25.2,170.4,24.9z"/>
	<path d="M177.2,23.7c-2.8,0-5.4,2.4-5.4,6.2c0,4.2,2.6,6,5.3,6c1.7,0,3.7-0.6,4.8-2.7l-0.5-0.7c-0.5,1-1.8,1.6-3.1,1.6
		c-1.9,0-3.8-1.4-3.8-4.7c0-0.4,0-0.6,0-0.6h7.6v-0.5C182,26.2,180.5,23.7,177.2,23.7z M174.4,28.1c0.1-2.2,1.1-3.5,2.7-3.5
		c1.7,0,2.3,1.4,2.2,3.4L174.4,28.1z"/>
	<path d="M186.4,26.3c0-1.2,1-1.6,2.1-1.6c0.7,0,1.5,0.3,1.7,0.8l0.6,1.8h0.9c0.1-1,0.1-2.1,0.3-3c-0.8-0.3-2.3-0.5-3.5-0.5
		c-2.2,0-4.3,1-4.3,3.4c0,3.8,5.9,3.1,5.9,6c0,1.1-0.7,1.8-2.1,1.8c-1.3,0-1.9-0.7-2.2-1.4l-0.7-1.7h-0.9c0,0.4,0,0.8,0,1.3
		c0,0.9,0,1.7-0.1,2.1c0,0,1.7,0.7,3.8,0.7c2.3,0,4.3-1.2,4.3-3.6C192.3,28.4,186.4,29,186.4,26.3z"/>
	<rect x="85" y="0.6" width="0.5" height="72.2"/>
	<path d="M99.6,51.8L99.6,51.8c0.8-0.2,1.2-0.7,1.2-1.3c0-0.8-0.7-1.3-1.6-1.3c-0.5,0-1.4,0-1.6,0h-1.2v0.3l0.4,0.1
		c0.3,0.1,0.4,0.1,0.4,0.4c0,0,0,0.7,0,1.9s0,1.9,0,1.9c0,0.2-0.1,0.3-0.4,0.4l-0.4,0.1v0.3h1.1c0.2,0,1.3,0.1,1.5,0.1
		c1.5,0,1.9-0.8,1.9-1.4C101.1,52.5,100.4,51.9,99.6,51.8z M98.1,49.6c0.2,0,0.4,0,0.8,0c0.8,0,1.1,0.4,1.1,1s-0.3,1.1-1.2,1.1
		c-0.4,0-0.7-0.1-0.7-0.1S98.1,49.6,98.1,49.6z M99,54.3c-0.6,0-0.9-0.1-0.9-0.6c0,0,0-1,0-1.7h0.6c1.1,0,1.5,0.4,1.5,1.2
		C100.1,53.9,99.7,54.3,99,54.3z"/>
	<path d="M106.5,53.9c-1.1-2.5-1.9-4.8-1.9-4.8l-0.6,0.1c0,0-1,2.5-1.8,4.6c-0.1,0.2-0.2,0.3-0.4,0.4l-0.4,0.1v0.3h0.9h1.1v-0.3
		l-0.4-0.1c-0.3-0.1-0.4-0.1-0.3-0.4c0,0,0.2-0.5,0.5-1.5h1.8c0,0,0.4,1.1,0.6,1.5c0.1,0.2,0,0.3-0.3,0.4l-0.4,0.1v0.3h1.2h1.2v-0.3
		l-0.4-0.1C106.7,54.2,106.6,54.1,106.5,53.9z M103.3,52l0.8-2.1l0.8,2.1H103.3z"/>
	<path d="M111.6,53.2l-0.8-1.2c0.7-0.3,1.1-0.8,1.1-1.4c0-1.1-1-1.4-1.6-1.4c-0.5,0-1.2,0.1-1.2,0.1h-1.5v0.3l0.4,0.1
		c0.3,0.1,0.3,0.1,0.4,0.4c0,0,0,0.7,0,1.9s0,1.9,0,1.9c0,0.2-0.1,0.3-0.4,0.4l-0.4,0.1v0.3h1.2h1.2v-0.3l-0.4-0.1
		c-0.3-0.1-0.4-0.1-0.4-0.4c0-0.9,0-1.7,0-1.7h0.9c0.1,0.2,0.2,0.3,0.3,0.5c0.4,0.7,0.8,1.5,1.2,1.7c0.3,0.2,0.7,0.2,1.1,0.2h0.3
		l0.1-0.3C112.4,54.3,112,53.7,111.6,53.2z M110.1,51.9h-0.3c-0.3,0-0.5-0.1-0.6-0.1v-2.1c0-0.1,0-0.1,0.1-0.1h0.5
		c0.7,0,1.2,0.4,1.2,1.1C110.9,51.6,110.4,51.9,110.1,51.9z"/>
	<path d="M117.1,49.3v0.3l0.4,0.1c0.3,0.1,0.4,0.1,0.4,0.4c0,1.5,0.1,3.4,0.1,3.4l-2.6-3.5c-0.2-0.2-0.3-0.6-0.3-0.6h-0.8h-1v0.3
		l0.4,0.1c0.3,0.1,0.4,0.1,0.4,0.4c0,0.5-0.1,3.4-0.1,3.9c0,0.2-0.1,0.3-0.4,0.4l-0.4,0.1v0.3h0.9h1v-0.3l-0.4-0.1
		c-0.3-0.1-0.4-0.1-0.4-0.4c0-1,0-4,0-4s1.4,1.8,3.5,4.7h0.5c0-0.7,0-4.6,0-4.6c0-0.2,0.1-0.3,0.4-0.4l0.4-0.1v-0.3h-1L117.1,49.3z"
		/>
	<path d="M124.3,53.9c-1.1-2.5-1.9-4.8-1.9-4.8l-0.6,0.1c0,0-1,2.5-1.8,4.6c-0.1,0.2-0.2,0.3-0.4,0.4l-0.4,0.1v0.3h0.9h1.1v-0.3
		l-0.4-0.1c-0.3-0.1-0.4-0.1-0.3-0.4c0,0,0.2-0.5,0.5-1.5h1.8c0,0,0.4,1.1,0.6,1.5c0.1,0.2,0,0.3-0.3,0.4l-0.4,0.1v0.3h1.2h1.2v-0.3
		l-0.4-0.1C124.4,54.2,124.4,54.1,124.3,53.9z M121.1,52l0.8-2.1l0.8,2.1H121.1z"/>
	<path d="M129.4,53.2l-0.8-1.2c0.7-0.3,1.1-0.8,1.1-1.4c0-1.1-1-1.4-1.6-1.4c-0.5,0-1.2,0.1-1.2,0.1h-1.5v0.3l0.4,0.1
		c0.3,0.1,0.3,0.1,0.4,0.4c0,0,0,0.7,0,1.9s0,1.9,0,1.9c0,0.2-0.1,0.3-0.4,0.4l-0.4,0.1v0.3h1.2h1.2v-0.3l-0.4-0.1
		c-0.3-0.1-0.4-0.1-0.4-0.4c0-0.9,0-1.7,0-1.7h0.9c0.1,0.2,0.2,0.3,0.3,0.5c0.4,0.7,0.8,1.5,1.2,1.7c0.3,0.2,0.7,0.2,1.1,0.2h0.3
		l0.1-0.3C130.2,54.3,129.8,53.7,129.4,53.2z M127.8,51.9h-0.3c-0.3,0-0.5-0.1-0.6-0.1v-2.1c0-0.1,0-0.1,0.1-0.1h0.5
		c0.7,0,1.2,0.4,1.2,1.1C128.7,51.6,128.2,51.9,127.8,51.9z"/>
	<path d="M133.7,49.2c-0.3,0-1,0-1.7,0.1h-1.1v0.3l0.4,0.1c0.3,0.1,0.4,0.1,0.4,0.4c0,0,0,0.7,0,1.9s0,1.9,0,1.9
		c0,0.2-0.1,0.3-0.4,0.4l-0.4,0.1v0.3h1.1c0.2,0,1.3,0.1,1.4,0.1c2.1,0,3.1-1.2,3.1-2.7C136.5,50.5,135.6,49.2,133.7,49.2z
		 M133.6,54.3c-0.7,0-1.1,0-1.1-0.6v-4c0-0.1,0-0.1,0.1-0.1h0.7c1.5,0,2.2,0.9,2.2,2.4C135.6,53.9,134.4,54.3,133.6,54.3z"/>
	<path d="M142.8,54.1c-0.3,0.1-0.6,0.1-0.8,0.1c-1.4,0-2.3-0.9-2.3-2.4c0-1.6,1-2.2,1.9-2.2c0.7,0,1.1,0.3,1.3,0.8l0.2,0.5h0.3
		c0-0.5,0.1-1.3,0.2-1.6l-0.6,0.1c-0.2-0.1-0.7-0.2-1.3-0.2c-1.7,0-2.8,1.2-2.8,2.8s1.1,2.7,2.8,2.7c1,0,1.8-0.4,2-0.4
		c0-0.8,0-1.3,0-1.3h-0.3L142.8,54.1z"/>
	<path d="M147.1,49.2c-1.7,0-2.8,1.2-2.8,2.8c0,1.8,1.4,2.7,2.7,2.7c1.7,0,2.8-1.2,2.8-2.8C149.7,50.1,148.4,49.2,147.1,49.2z
		 M147,54.3c-1,0-1.9-0.8-1.9-2.5c0-1,0.4-2.3,1.8-2.3c1,0,1.8,0.8,1.8,2.5C148.8,53,148.4,54.3,147,54.3z"/>
	<path d="M154.4,53.6c-0.3,0.5-0.6,0.6-0.9,0.6h-0.8c-0.4,0-0.5-0.1-0.5-0.4c0-0.3,0-1.1,0-1.9c0-1.2,0-1.9,0-1.9
		c0-0.3,0.1-0.3,0.4-0.4l0.4-0.1v-0.3h-1.2h-1.2v0.3l0.4,0.1c0.3,0.1,0.4,0.1,0.4,0.4c0,0,0,0.7,0,1.9s0,1.9,0,1.9
		c0,0.2-0.1,0.3-0.4,0.4l-0.4,0.1v0.3h1.2h1.7c0.4,0,1.5,0,1.5,0c0-0.3,0.2-1.5,0.2-1.6h-0.3L154.4,53.6z"/>
	<path d="M159.4,53.6c-0.3,0.5-0.6,0.6-0.9,0.6h-0.8c-0.4,0-0.5-0.1-0.5-0.4c0-0.3,0-1.1,0-1.9c0-1.2,0-1.9,0-1.9
		c0-0.3,0.1-0.3,0.4-0.4l0.4-0.1v-0.3h-1.2h-1.2v0.3l0.4,0.1c0.3,0.1,0.4,0.1,0.4,0.4c0,0,0,0.7,0,1.9s0,1.9,0,1.9
		c0,0.2-0.1,0.3-0.4,0.4l-0.4,0.1v0.3h1.2h1.7c0.4,0,1.5,0,1.5,0c0-0.3,0.2-1.5,0.2-1.6h-0.3L159.4,53.6z"/>
	<path d="M164.4,53.6c-0.3,0.5-0.6,0.6-0.9,0.6h-0.9c-0.4,0-0.6-0.2-0.6-0.5V52c0,0,0.5,0,1,0c0.2,0,0.3,0.1,0.4,0.4l0.1,0.4h0.3v-1
		v-1h-0.3l-0.1,0.4c-0.1,0.3-0.2,0.4-0.4,0.4c-0.4,0-1,0-1,0v-1.9c0-0.1,0-0.1,0.1-0.1h1.5c0.3,0,0.4,0.3,0.6,0.7l0.1,0.3h0.3
		c0.1-1.1,0.1-1.5,0.1-1.5s-0.7,0.1-1.2,0.1h-2h-1.2v0.3l0.4,0.1c0.3,0.1,0.3,0.1,0.4,0.4c0,0,0,0.7,0,1.9s0,1.9,0,1.9
		c0,0.2-0.1,0.3-0.4,0.4l-0.4,0.1v0.3h1.2h1.7c0.4,0,1.5,0,1.5,0c0-0.3,0.2-1.5,0.2-1.6h-0.3L164.4,53.6z"/>
	<path d="M169,52.1v0.3l0.5,0.1c0.3,0,0.4,0.1,0.4,0.4V54c0,0.2-0.4,0.3-0.8,0.3c-1.8,0-2.4-1.3-2.4-2.5c0-1.4,0.8-2.2,2.1-2.2
		c0.7,0,1.2,0.3,1.4,0.8l0.2,0.5h0.3c0-0.5,0.1-1.3,0.2-1.6l-0.6,0.1c-0.2-0.1-0.9-0.2-1.5-0.2c-1.5,0-3,0.9-3,2.7
		c0,1.1,0.6,2.7,3,2.7c0.9,0,2-0.4,2-0.4v-1.3c0-0.2,0.1-0.3,0.4-0.4l0.3-0.1v-0.3h-1.1H169z"/>
	<path d="M175.8,53.6c-0.3,0.5-0.6,0.6-0.9,0.6H174c-0.4,0-0.6-0.2-0.6-0.5V52c0,0,0.5,0,1,0c0.2,0,0.3,0.1,0.4,0.4l0.1,0.4h0.3v-1
		v-1h-0.3l-0.1,0.4c-0.1,0.3-0.2,0.4-0.4,0.4c-0.4,0-1,0-1,0v-1.9c0-0.1,0-0.1,0.1-0.1h1.5c0.3,0,0.4,0.3,0.6,0.7l0.1,0.3h0.3
		c0.1-1.1,0.1-1.5,0.1-1.5s-0.7,0.1-1.2,0.1h-2h-1.2v0.3l0.4,0.1c0.3,0.1,0.3,0.1,0.4,0.4c0,0,0,0.7,0,1.9s0,1.9,0,1.9
		c0,0.2-0.1,0.3-0.4,0.4l-0.4,0.1v0.3h1.2h1.7c0.4,0,1.5,0,1.5,0c0-0.3,0.2-1.5,0.2-1.6H176L175.8,53.6z"/>
	<path d="M27,19.8v0.1c2.2,0.8,1.9,4,1.9,6v16.5c0,2,0.3,5.2-1.9,6v0.1h7.2c3.3,0,6.7,0.1,9.8-1.4c2.9-1.4,5.2-4.3,5.2-7.6
		c0-4.3-3.2-6.9-7.1-7.7c2.5-1.1,4.4-2.7,4.4-5.7c0-3.9-3.4-6.3-9.1-6.3H27z M44.4,39.9c0,4.1-3.6,5.8-7.2,5.5l-3.8-0.3V34.3
		l3.1-0.2C40.3,33.9,44.4,35.7,44.4,39.9z M41.7,26.8c0,3.6-4.1,4.5-6.9,4.5l-1.4,0.1v-8.6l2.9-0.3C38.9,22.2,41.7,23.8,41.7,26.8z"
		/>
	<path d="M14.6,12.5c0,0,1.3,1.1,3.4,1.4c1.7,0.2,3.3-1.2,3.3-1.2s-1.8-1.5-3.5-1.4C16.5,11.3,14.6,12.5,14.6,12.5z"/>
	<path d="M25.3,10.3c0,0-1.4-1.8-3.1-2C20.9,8.2,18.9,9,18.9,9s1,1.3,3,1.9C23.5,11.4,25.3,10.3,25.3,10.3z"/>
	<path d="M29.6,8.6c0,0-1.1-2-2.7-2.5c-1.2-0.4-3.3,0.1-3.3,0.1s0.8,1.5,2.6,2.4C27.7,9.3,29.6,8.6,29.6,8.6z"/>
	<path d="M72.5,36.1c1.5-1.2,1.6-3.5,1.6-3.5s-2.6,0.2-3.9,1.6c-0.4,0.5-0.7,1.2-0.9,1.9c0-1.4,0-2.7-0.2-4c0.6-0.2,1.8-0.8,2.9-2.1
		c1.3-1.4,1-3.7,1-3.7s-2.4,0.6-3.5,2.3c-0.3,0.5-0.5,1.2-0.6,1.9c-0.2-1.4-0.5-2.8-0.9-4.1c0.5-0.3,1.6-1.1,2.6-2.6
		c1-1.6,0.3-3.7,0.3-3.7s-2.3,1-3,2.8c-0.3,0.6-0.3,1.6-0.2,2.3c-0.5-1.5-1-2.9-1.7-4.3c0.5-0.4,1.4-1.3,2-2.9
		c0.7-1.6-0.3-3.6-0.3-3.6s-2,1.3-2.5,3.2c-0.1,0.6,0,1.4,0.1,2c-0.7-1.4-1.5-2.6-2.4-3.8c0.4-0.5,1.2-1.5,1.4-3
		c0.4-1.7-0.9-3.4-0.9-3.4s-1.7,1.6-1.8,3.4c0,0.6,0.1,1.3,0.4,1.9c-0.9-1.1-1.8-2.1-2.8-3c0.3-0.5,0.9-1.7,0.9-3.2
		c0-1.8-1.5-3.2-1.5-3.2S57.2,7.2,57.4,9c0.1,0.6,0.5,1.4,0.9,2c-1.2-1-2.4-1.9-3.5-2.7C55,8,55.4,6.7,55.2,5c-0.3-1.7-2-2.8-2-2.8
		s-1,2-0.4,3.8c0.2,0.7,0.8,1.4,1.4,2c-1.6-1-3-1.7-4.2-2.2c0.1-0.4,0.4-1.7-0.2-3.4C49.3,0.8,47.4,0,47.4,0s-0.6,2.2,0.2,3.7
		C48,4.4,49,5.2,49.5,5.6c-0.9-0.4-1.7-0.6-2.3-0.8C47,4.6,46,3.4,44.8,3.2C44,3,42.4,3.6,42.4,3.6s0.8,1.1,2.3,1.6
		C45.8,5.5,47,5,47.2,4.8c2.3,0.8,6.9,2.6,11.7,7.1C59,12,59,12,59.1,12.1l0,0l0,0c0.1,0.1,0.2,0.2,0.3,0.3c-0.5-0.3-1.9-1.1-3-1.1
		c-1.8-0.1-3.5,1.4-3.5,1.4s1.6,1.4,3.3,1.2c1.9-0.3,3.2-1.2,3.4-1.4c1.2,1.2,2.4,2.5,3.4,4.1c-0.5-0.4-1.7-1.4-2.8-1.6
		c-1.8-0.4-3.8,0.9-3.8,0.9s1.4,1.7,3.1,1.7c1.9,0.1,3.3-0.6,3.6-0.8c0.9,1.3,1.7,2.7,2.4,4.3c-0.5-0.6-1.4-1.5-2.1-1.7
		c-1.8-0.7-4,0.2-4,0.2s1.1,1.9,2.8,2.3c1.8,0.4,3.1,0,3.6-0.1c0.6,1.4,1.2,2.9,1.6,4.5c-0.4-0.7-1.1-1.5-1.7-1.9
		c-1.6-1-4.1-0.5-4.1-0.5s0.7,2.1,2.4,2.8c1.6,0.7,3.1,0.6,3.6,0.5c0.4,1.5,0.7,3.1,0.8,4.7c-0.3-0.7-0.8-1.7-1.5-2.3
		c-1.4-1.3-3.9-1.3-3.9-1.3s0.4,2.3,1.9,3.3s3,1.2,3.5,1.2c0.1,1.5,0.1,3,0,4.6c-0.2-0.8-0.5-1.9-1-2.5c-1.2-1.6-3.8-1.9-3.8-1.9
		s0,2.3,1.4,3.6c1.3,1.2,2.7,1.7,3.3,1.8c-0.2,1.4-0.4,2.8-0.8,4.2v0.1c-0.1-0.8-0.2-1.9-0.6-2.6c-0.9-1.7-3.4-2.6-3.4-2.6
		s-0.5,2.3,0.7,3.9c1.1,1.4,2.4,2.1,3,2.4c-0.4,1.3-0.9,2.6-1.4,3.9c0.1-0.8,0.1-1.8-0.1-2.5c-0.6-2-3-3.2-3-3.2s-0.9,2.3,0,4
		c0.8,1.6,2,2.5,2.6,2.9c-0.6,1.2-1.3,2.4-2.1,3.4c0.2-0.8,0.4-1.7,0.3-2.4c-0.3-2-2.4-3.7-2.4-3.7s-1.3,2.1-0.7,4
		c0.6,1.7,1.5,2.8,2,3.3c-0.8,1-1.6,2-2.5,2.9c0.3-0.7,0.6-1.5,0.6-2.1c0-2.1-1.8-4.2-1.8-4.2S57,52,57.3,54c0.2,1.8,0.9,3,1.3,3.6
		c-0.9,0.8-1.8,1.6-2.7,2.3c0.4-0.6,0.7-1.2,0.9-1.8c0.4-2.2-1.1-4.6-1.1-4.6s-2,1.6-2.1,3.7c-0.1,1.8,0.4,3.1,0.7,3.9
		c-1.1,0.8-2.3,1.4-3.5,2c0.6-0.6,1.2-1.3,1.4-2c0.9-2.1-0.2-4.8-0.2-4.8s-2.3,1.3-2.8,3.4c-0.4,1.8-0.2,3.3,0,4.1
		c-1.1,0.5-2.3,0.9-3.4,1.1c0.6-0.5,1.3-1,1.7-1.6c1.2-1.9,0.6-4.8,0.6-4.8s-2.5,0.9-3.4,2.9C44,63,43.9,64.5,44,65.3
		c-1.7,0.3-3.2,0.7-4.5,1.2c-0.9,0.3-1.8,0.7-2.5,1c-0.8-0.3-1.6-0.7-2.5-1c-1.3-0.5-2.8-0.9-4.4-1.2c0.1-0.8,0-2.3-0.7-3.9
		c-0.9-2-3.4-2.9-3.4-2.9s-0.6,2.9,0.6,4.8c0.4,0.6,1.1,1.2,1.7,1.6c-1.2-0.3-2.3-0.7-3.5-1.2c0.2-0.8,0.4-2.3,0-4
		c-0.5-2.1-2.8-3.4-2.8-3.4s-1.1,2.7-0.2,4.8c0.3,0.7,0.8,1.3,1.4,1.9c-1.1-0.6-2.2-1.2-3.3-1.9c0.3-0.7,0.8-2.1,0.7-3.9
		c-0.1-2.1-2.1-3.7-2.1-3.7s-1.5,2.4-1.1,4.6c0.1,0.6,0.5,1.3,0.9,1.9c-0.9-0.7-1.9-1.5-2.7-2.3c0.4-0.6,1.2-1.9,1.4-3.7
		c0.3-2-1.4-3.9-1.4-3.9s-1.9,2.1-1.8,4.2c0,0.7,0.3,1.5,0.7,2.2c-0.9-0.9-1.7-1.9-2.5-3c0.5-0.5,1.4-1.6,2-3.3c0.6-1.9-0.7-4-0.7-4
		s-2.2,1.7-2.4,3.7c-0.1,0.8,0.1,1.7,0.3,2.5c-0.8-1.1-1.5-2.3-2.2-3.6c0.6-0.4,1.8-1.3,2.6-2.9c0.9-1.7,0-4,0-4s-2.4,1.2-3.1,3.2
		c-0.2,0.7-0.2,1.6-0.1,2.4c-0.6-1.2-1-2.5-1.4-3.8c0.6-0.3,1.9-1,3-2.4c1.2-1.6,0.7-3.9,0.7-3.9s-2.7,1-3.6,2.7
		c-0.4,0.7-0.5,1.8-0.6,2.6v-0.1c-0.4-1.4-0.6-2.8-0.8-4.2c0.6-0.2,2-0.6,3.3-1.8c1.4-1.3,1.4-3.6,1.4-3.6s-2.5,0.3-3.8,1.9
		c-0.5,0.6-0.8,1.7-1,2.5c-0.1-1.5-0.1-3.1,0-4.6c0.5,0,2-0.1,3.6-1.2c1.5-1,1.9-3.3,1.9-3.3s-2.6,0-3.9,1.3
		c-0.7,0.6-1.3,1.8-1.6,2.6c0.2-1.7,0.4-3.4,0.8-5c0.6,0.1,2,0.2,3.6-0.5c1.7-0.7,2.4-2.8,2.4-2.8s-2.4-0.5-4.1,0.5
		c-0.6,0.4-1.3,1.3-1.7,1.9c0.4-1.6,1-3.1,1.6-4.5c0.4,0.1,1.8,0.6,3.7,0.2c1.7-0.4,2.8-2.3,2.8-2.3s-2.3-0.9-4-0.2
		c-0.9,0.3-1.9,1.4-2.3,2c0.7-1.6,1.6-3.1,2.5-4.5c0.3,0.2,1.7,0.8,3.6,0.8c1.8,0,3.1-1.7,3.1-1.7s-2-1.3-3.8-0.9
		c-1,0.2-2.2,1.2-2.8,1.6c1.2-1.8,2.5-3.3,3.9-4.6v0.1c0,0,0.1-0.1,0.2-0.3c3.3-3,6.5-4.8,8.9-5.9l0,0l0,0c1.1-0.5,2-0.8,2.7-1.1
		c0.1,0.1,1.4,0.8,2.6,0.4c1.5-0.5,2.3-1.6,2.3-1.6S30.2,3,29.3,3.2c-1.2,0.2-2.1,1.2-2.3,1.5c-0.6,0.2-1.3,0.4-2.2,0.8
		c0.6-0.4,1.4-1.1,1.8-1.8C27.4,2.2,26.8,0,26.8,0s-1.9,0.8-2.4,2.4c-0.6,1.7-0.3,3-0.2,3.4C22.9,6.3,21.5,7,19.9,8
		c0.5-0.5,1.2-1.3,1.4-2c0.6-1.8-0.4-3.8-0.4-3.8s-1.7,1.1-2,2.8c-0.2,1.7,0.2,3,0.3,3.4c-1.1,0.7-2.2,1.5-3.3,2.5
		c0.4-0.6,0.7-1.3,0.8-1.8c0.1-1.8-1.2-3.7-1.2-3.7S14,6.8,14,8.6c0.1,1.5,0.6,2.7,0.9,3.2c-1,0.9-2,1.9-2.9,3
		c0.2-0.6,0.4-1.3,0.4-1.9c-0.1-1.8-1.8-3.4-1.8-3.4s-1.3,1.7-0.9,3.4c0.3,1.5,1,2.6,1.4,3c-0.8,1.1-1.5,2.3-2.2,3.5
		C9,18.8,9.1,18.2,9,17.7c-0.5-1.9-2.5-3.2-2.5-3.2s-1,2-0.3,3.6c0.6,1.5,1.5,2.4,1.9,2.8c-0.6,1.3-1.1,2.6-1.6,3.9
		c0-0.7,0-1.4-0.2-2c-0.8-1.8-3-2.8-3-2.8s-0.7,2.1,0.3,3.7c0.9,1.4,2,2.2,2.5,2.5c-0.4,1.4-0.7,2.9-1,4.5C5,30,4.8,29.2,4.5,28.6
		c-0.9-1.7-3.4-2.3-3.4-2.3S0.8,28.6,2,30c1.1,1.3,2.4,1.9,3,2.1c-0.1,1.3-0.2,2.6-0.2,4c-0.2-0.7-0.5-1.4-0.9-1.9
		C2.6,32.8,0,32.6,0,32.6s0.1,2.3,1.6,3.5c1.4,1.1,2.7,1.4,3.3,1.5c0.1,1.3,0.3,2.6,0.6,4C5.2,41,4.7,40.3,4.2,40
		c-1.5-1.2-4.1-1-4.1-1s0.5,2.3,2.2,3.2c1.5,0.9,3,1,3.6,1c0.3,1.2,0.7,2.4,1.1,3.5c-0.4-0.5-0.9-1-1.4-1.2
		c-1.8-0.9-4.4-0.2-4.4-0.2s0.9,2.2,2.8,2.9c1.6,0.6,3.1,0.4,3.7,0.3c0.5,1.2,1.2,2.3,1.8,3.4c-0.5-0.4-1.2-0.9-1.8-1
		c-1.9-0.7-4.4,0.5-4.4,0.5s1.3,2.1,3.3,2.4c1.8,0.3,3.2-0.1,3.9-0.3c0.7,1,1.5,2,2.3,2.9c-0.6-0.3-1.3-0.7-1.9-0.7
		c-2-0.3-4.3,1.3-4.3,1.3s1.7,1.8,3.8,1.8c1.8-0.1,3.2-0.7,3.8-1c1,1,2,1.9,3,2.7c-0.7-0.3-1.6-0.5-2.3-0.5
		c-2.1,0.1-4.1,2.2-4.1,2.2s2.1,1.6,4.1,1.1c1.9-0.4,3.1-1.3,3.7-1.7c1,0.7,2,1.4,3.1,2c-0.7-0.1-1.4-0.2-2-0.1
		c-2.2,0.5-3.8,2.9-3.8,2.9s2.3,1.2,4.3,0.4c1.7-0.7,2.8-1.7,3.3-2.3c1.1,0.5,2.1,0.9,3.2,1.3c-0.7,0-1.4,0.1-1.9,0.3
		c-2,0.9-3.3,3.6-3.3,3.6s2.6,0.8,4.4-0.4c1.6-1,2.6-2.3,3-3c2.7,0.5,4.9,1.2,6.7,2C32.4,70,31,71.6,31,71.6l1.2,1.1
		c0,0,1.5-1.9,4.9-3.6c3.3,1.8,4.8,3.6,4.8,3.6l1.2-1.1c0,0-1.3-1.6-4.6-3.3c1.8-0.8,4-1.5,6.7-2c0.4,0.7,1.3,2,3,3
		c1.8,1.2,4.4,0.4,4.4,0.4s-1.2-2.7-3.3-3.6c-0.5-0.2-1.3-0.3-1.9-0.3c1.1-0.3,2.2-0.8,3.3-1.3c0.5,0.6,1.6,1.6,3.4,2.3
		c2,0.8,4.3-0.4,4.3-0.4s-1.6-2.4-3.8-2.9c-0.6-0.1-1.5,0-2.2,0.1c1.1-0.6,2.1-1.3,3.2-2c0.5,0.5,1.8,1.4,3.7,1.7
		c2,0.5,4.1-1.1,4.1-1.1s-2-2.1-4.1-2.2c-0.8,0-1.7,0.3-2.4,0.6c1.1-0.8,2.1-1.8,3.1-2.8c0.6,0.4,2,1,3.8,1.1c2.1,0,3.8-1.8,3.8-1.8
		s-2.3-1.6-4.4-1.4c-0.6,0.1-1.4,0.4-2,0.8c0.8-0.9,1.7-1.9,2.4-3c0.6,0.2,2.1,0.7,4,0.4c2-0.3,3.3-2.4,3.3-2.4s-2.5-1.2-4.4-0.5
		c-0.7,0.2-1.5,0.8-2.1,1.3c0.8-1.2,1.4-2.4,2-3.7c0.6,0.1,2.1,0.3,3.9-0.3c1.9-0.7,2.8-2.9,2.8-2.9s-2.6-0.7-4.4,0.2
		C68,45.8,67.5,46.4,67,47c0.5-1.2,0.9-2.5,1.2-3.8c0.6,0,2.1-0.1,3.7-1c1.7-0.9,2.2-3.2,2.2-3.2s-2.6-0.2-4.1,1
		c-0.6,0.4-1.1,1.2-1.5,1.9c0.3-1.4,0.6-2.8,0.7-4.2C69.8,37.5,71.1,37.2,72.5,36.1z"/>
	<path d="M48.9,10.3c0,0,1.8,1.1,3.4,0.6c2-0.6,3-1.9,3-1.9s-2-0.8-3.3-0.7C50.3,8.5,48.9,10.3,48.9,10.3z"/>
	<path d="M47.2,6.1c-1.6,0.5-2.6,2.5-2.6,2.5s1.9,0.7,3.4,0c1.7-1,2.5-2.4,2.5-2.4S48.4,5.7,47.2,6.1z"/>
</g>
</svg>
